<?xml version="1.0" standalone="no"?>
<!DOCTYPE svg PUBLIC "-//W3C//DTD SVG 20010904//EN"
 "http://www.w3.org/TR/2001/REC-SVG-20010904/DTD/svg10.dtd">
<svg version="1.0" xmlns="http://www.w3.org/2000/svg"
 width="159.000000pt" height="159.000000pt" viewBox="0 0 159.000000 159.000000"
 preserveAspectRatio="xMidYMid meet">
<metadata>
Created by potrace 1.14, written by Peter Selinger 2001-2017
</metadata>
<g transform="translate(0.000000,159.000000) scale(0.100000,-0.100000)"
fill="#000000" stroke="none">
<path d="M95 1581 c82 -7 74 -23 -9 -18 l-56 4 0 -500 0 -499 38 5 37 5 -37
-11 -38 -11 0 -278 0 -278 99 0 98 0 -25 52 c-29 59 -37 155 -14 150 8 -1 11
2 8 6 -3 5 3 17 13 27 11 9 47 60 82 113 34 54 78 122 99 153 30 46 35 60 28
80 -10 24 -5 105 7 147 5 15 3 22 -6 22 -20 0 -69 48 -69 68 0 9 -9 28 -20 42
-30 38 -25 105 6 79 19 -16 26 4 32 97 4 71 8 87 26 100 12 8 22 10 24 4 9
-27 20 -3 26 60 9 104 39 172 101 234 119 120 287 115 388 -12 70 -88 82 -124
82 -244 0 -100 1 -107 20 -110 14 -2 21 -12 23 -34 3 -26 7 -30 25 -28 12 2
99 17 192 33 94 17 194 33 223 36 l52 7 0 254 0 254 -762 -2 c-420 -1 -731 -4
-693 -7z m210 -101 c-3 -4 -1 -10 4 -12 13 -4 31 -118 31 -199 l0 -66 -37 -6
c-20 -4 -38 -5 -40 -3 -2 2 1 15 7 30 7 19 7 48 -1 94 -10 66 -7 110 12 159 5
13 14 21 19 18 6 -4 8 -10 5 -15z m-225 -495 c13 -15 7 -45 -9 -45 -5 0 -11
14 -13 30 -5 33 3 38 22 15z m92 -230 c-2 -14 -6 -25 -8 -25 -2 0 -4 11 -4 25
0 14 4 25 9 25 4 0 6 -11 3 -25z m151 -132 c-7 -2 -19 -2 -25 0 -7 3 -2 5 12
5 14 0 19 -2 13 -5z m-166 -39 c-3 -3 -12 -4 -19 -1 -8 3 -5 6 6 6 11 1 17 -2
13 -5z"/>
<path d="M751 1259 c-1 -12 -16 -18 -66 -23 -36 -4 -72 -9 -80 -12 -25 -10
-17 -23 12 -21 16 1 28 -4 31 -13 3 -8 2 -12 -2 -8 -9 8 -96 -21 -96 -32 0 -9
77 -6 135 5 22 5 50 19 63 32 23 26 42 23 42 -6 0 -27 84 -114 106 -109 16 3
14 6 -11 21 l-30 16 35 -5 c19 -3 41 -8 48 -10 28 -8 6 30 -25 45 -38 19 -41
28 -10 33 18 3 13 8 -30 33 -29 17 -53 35 -53 40 0 6 -5 3 -11 -5 -8 -11 -12
-12 -16 -2 -7 18 -23 15 -24 -5 -1 -10 -5 -4 -9 12 -4 17 -8 23 -9 14z"/>
<path d="M533 1195 c-3 -9 -3 -18 0 -21 7 -8 47 15 47 26 0 16 -40 11 -47 -5z"/>
<path d="M633 1130 c-13 -5 -23 -12 -23 -15 0 -10 27 -5 46 10 21 16 11 18
-23 5z"/>
<path d="M380 1088 c0 -25 3 -29 10 -18 13 20 13 50 0 50 -5 0 -10 -15 -10
-32z"/>
<path d="M1020 1035 c-7 -8 -8 -15 -3 -15 5 0 14 -12 20 -27 11 -27 11 -27 12
15 1 44 -8 52 -29 27z"/>
<path d="M498 1018 c-33 -11 -35 -33 -8 -68 16 -20 20 -22 20 -7 0 9 3 17 8
17 4 0 15 7 26 15 18 13 18 14 0 33 -15 16 -24 17 -46 10z"/>
<path d="M675 1012 c-3 -8 -2 -19 2 -23 13 -12 81 -28 88 -21 4 4 17 7 28 7
15 0 22 6 22 20 0 14 -6 20 -22 19 -13 0 -23 2 -23 6 0 4 -20 7 -44 8 -32 0
-46 -4 -51 -16z"/>
<path d="M1519 1006 c-2 -2 -96 -16 -209 -30 -270 -34 -270 -34 -276 -54 -12
-36 -27 -61 -36 -56 -4 3 -8 -2 -8 -10 0 -9 7 -16 15 -16 9 0 18 -6 21 -14 5
-13 11 -13 40 1 32 16 35 16 56 -4 l23 -21 203 26 202 26 0 78 c0 58 -3 78
-13 78 -8 0 -16 -2 -18 -4z"/>
<path d="M1000 974 c0 -14 4 -23 10 -19 6 3 10 15 10 26 0 10 -4 19 -10 19 -5
0 -10 -12 -10 -26z"/>
<path d="M872 900 c0 -14 2 -19 5 -12 2 6 2 18 0 25 -3 6 -5 1 -5 -13z"/>
<path d="M665 900 c3 -5 8 -10 11 -10 2 0 4 5 4 10 0 6 -5 10 -11 10 -5 0 -7
-4 -4 -10z"/>
<path d="M680 871 c-14 -28 -12 -51 5 -51 11 0 13 -8 9 -30 -6 -26 -4 -30 15
-30 24 0 25 3 9 29 -6 11 -8 26 -3 37 5 11 7 22 7 27 -1 4 21 7 49 7 45 0 50
2 39 15 -8 10 -31 15 -66 15 -42 0 -55 -4 -64 -19z"/>
<path d="M630 811 c0 -12 5 -21 10 -21 6 0 10 6 10 14 0 8 -4 18 -10 21 -5 3
-10 -3 -10 -14z"/>
<path d="M760 809 c0 -8 47 -29 66 -29 30 0 72 -30 84 -61 12 -28 15 -30 26
-14 7 9 18 14 24 10 8 -5 9 3 5 28 -6 28 -3 37 12 46 15 9 13 11 -17 11 -19 1
-72 5 -117 8 -46 4 -83 5 -83 1z"/>
<path d="M1048 766 c-36 -16 -49 -28 -54 -49 -4 -18 -16 -33 -34 -40 -22 -10
-25 -16 -19 -32 4 -11 8 -29 8 -40 1 -18 0 -18 -15 3 -22 32 -34 27 -34 -14 0
-19 -4 -33 -9 -29 -5 3 -12 1 -16 -5 -4 -6 6 -10 24 -10 16 0 33 5 36 10 3 6
16 10 28 10 20 -1 20 -2 5 -11 -24 -13 -23 -42 2 -64 18 -16 20 -16 36 0 14
13 19 14 25 3 7 -11 9 -11 9 0 0 7 5 10 10 7 6 -3 10 -2 10 4 0 18 31 41 56
41 24 0 24 1 10 22 -9 12 -16 31 -16 41 0 16 5 18 26 13 25 -7 25 -5 19 26
-11 48 -13 50 -60 42 -24 -3 -48 -3 -54 0 -18 12 0 35 37 47 43 13 64 29 40
29 -9 0 -18 4 -20 8 -1 5 -24 -1 -50 -12z m-9 -118 c-5 -10 -14 -18 -18 -18
-5 0 -7 8 -4 18 2 10 11 19 18 19 10 0 11 -5 4 -19z"/>
<path d="M1490 758 c-30 -5 -111 -14 -179 -21 -89 -9 -126 -16 -129 -26 -4
-11 5 -13 44 -7 27 3 110 13 184 22 74 9 137 17 139 19 13 14 -12 19 -59 13z"/>
<path d="M615 730 c3 -5 8 -10 11 -10 2 0 4 5 4 10 0 6 -5 10 -11 10 -5 0 -7
-4 -4 -10z"/>
<path d="M803 655 c2 -5 11 -9 20 -7 12 2 15 -2 10 -15 -4 -13 -3 -15 6 -7 16
15 3 43 -20 41 -11 -1 -18 -6 -16 -12z"/>
<path d="M570 593 c-27 -26 -48 -48 -46 -50 2 -2 23 8 47 22 57 32 89 32 121
-2 36 -38 68 -94 68 -118 0 -15 -10 -9 -50 30 -27 27 -50 55 -50 63 0 9 -7 11
-22 6 -39 -12 -142 -61 -163 -78 -20 -15 -19 -15 6 -16 15 0 47 11 70 25 24
14 50 25 57 25 19 0 95 -76 90 -90 -2 -8 -19 2 -43 24 -21 20 -45 34 -54 32
-9 -2 -26 -7 -39 -11 -15 -4 -25 -17 -29 -35 -4 -24 -14 -32 -53 -45 -52 -17
-70 -34 -89 -82 -10 -25 -21 -34 -45 -39 -19 -3 -54 -26 -86 -55 -29 -27 -57
-49 -62 -49 -17 0 -7 -19 35 -66 24 -27 46 -57 50 -66 5 -13 18 -18 50 -18 52
0 92 30 83 63 -3 14 -2 17 6 9 6 -6 11 -25 12 -41 l1 -31 64 0 63 0 -4 28 c-3
15 -11 54 -18 88 -13 58 -12 62 8 82 13 13 19 28 15 38 -4 12 -3 15 5 10 17
-10 15 9 -3 24 -8 7 -15 24 -15 39 l1 26 20 -24 c11 -13 21 -22 22 -20 2 2 9
16 17 32 10 19 16 24 21 15 7 -10 12 -11 29 0 11 6 21 12 23 12 1 0 1 -79 -1
-175 l-4 -175 112 0 112 0 -7 68 c-12 111 -32 193 -69 282 -39 93 -46 131 -21
110 8 -7 15 -20 16 -29 1 -9 4 -5 8 9 6 19 3 27 -12 32 -13 6 -18 17 -17 35 4
58 1 62 -45 74 -25 6 -45 15 -45 19 0 10 -58 40 -77 40 -7 0 -36 -21 -63 -47z
m163 -208 c-3 -9 -8 -14 -10 -11 -3 3 -2 9 2 15 9 16 15 13 8 -4z m-196 -107
c-3 -7 -5 -2 -5 12 0 14 2 19 5 13 2 -7 2 -19 0 -25z m-116 -171 l-24 -22 19
27 c10 14 21 24 23 22 3 -3 -6 -15 -18 -27z"/>
<path d="M822 553 c0 -35 1 -36 15 -18 8 11 19 29 24 40 9 18 9 19 -4 3 -15
-19 -33 -25 -22 -9 3 5 1 12 -4 15 -5 3 -9 -11 -9 -31z"/>
<path d="M1187 443 c-14 -26 -17 -67 -5 -74 10 -7 10 -9 -3 -9 -11 0 -16 -12
-17 -42 -3 -44 -30 -78 -62 -78 -10 0 -7 7 10 19 19 15 22 22 12 33 -9 11 -8
19 3 34 8 10 15 36 15 57 l0 37 -30 -27 c-16 -14 -30 -30 -30 -35 0 -20 -56
-57 -88 -58 -26 0 -34 5 -42 25 -5 14 -7 33 -4 42 5 17 5 17 -9 0 -14 -17 -16
-17 -31 5 -9 12 -16 28 -16 35 0 7 -10 12 -23 11 -38 -3 -26 -50 28 -114 l47
-55 -11 -88 c-6 -48 -11 -104 -11 -124 l0 -37 230 0 c268 0 253 -9 190 116
-44 89 -57 107 -82 117 -10 3 -18 11 -18 16 0 6 -7 8 -15 5 -19 -8 -31 22 -16
40 10 11 7 19 -10 35 -18 16 -19 21 -7 21 9 0 18 -7 22 -15 3 -8 11 -15 17
-15 7 0 9 3 6 6 -10 10 12 44 29 44 8 0 17 -7 20 -15 9 -23 23 -18 19 8 -9 45
-28 77 -45 77 -10 0 -20 -5 -22 -11 -3 -8 -10 -6 -20 5 -18 18 -25 20 -31 9z
m73 -53 c0 -5 -8 -10 -17 -10 -15 0 -16 2 -3 10 19 12 20 12 20 0z m-28 -182
c-7 -7 -10 -5 -7 8 5 29 6 30 12 16 3 -8 1 -18 -5 -24z m-83 -37 c23 -15 -23
-32 -105 -38 -52 -4 -74 -3 -74 6 0 6 8 11 18 12 9 0 33 6 52 13 42 16 90 19
109 7z"/>
<path d="M390 415 c0 -10 7 -15 18 -13 21 4 19 22 -2 26 -10 2 -16 -3 -16 -13z"/>
<path d="M1357 384 c-2 -3 -2 -37 1 -77 3 -52 1 -69 -7 -62 -9 9 -17 36 -20
68 -1 4 -6 7 -12 7 -13 0 -7 -67 13 -132 23 -78 57 -24 73 116 4 32 0 43 -19
61 -14 13 -27 21 -29 19z"/>
<path d="M336 356 c-9 -15 -15 -33 -13 -39 3 -7 8 -4 13 8 4 11 12 23 17 26 5
4 8 12 5 19 -2 8 -11 2 -22 -14z"/>
<path d="M1440 323 c0 -40 -9 -89 -24 -138 -2 -5 -4 -13 -6 -17 -1 -4 -8 -28
-16 -53 -12 -40 -11 -50 3 -80 17 -35 17 -35 81 -35 57 0 63 2 52 15 -10 13
-10 19 4 34 14 15 17 33 14 76 -3 49 -8 59 -31 73 -25 15 -27 15 -41 -3 -18
-23 -18 -24 -16 82 1 48 -3 84 -9 88 -7 4 -11 -11 -11 -42z m94 -218 c-6 -23
-8 -25 -16 -11 -6 11 -6 22 3 32 16 20 21 12 13 -21z"/>
<path d="M1240 300 c0 -8 5 -22 10 -30 9 -13 10 -13 10 0 0 8 -5 22 -10 30 -9
13 -10 13 -10 0z"/>
<path d="M181 174 c0 -11 3 -14 6 -6 3 7 2 16 -1 19 -3 4 -6 -2 -5 -13z"/>
</g>
</svg>
